PathFileType	4	(X/Y/Z)	C:/Users/opensim2020/Desktop/walking_exp_matlab/subject01_walking13_straight_04.trc																																																																																																																												
DataRate	CameraRate	NumFrames	NumMarkers	Units	OrigDataRate	OrigDataStartFrame	OrigNumFrames																																																																																																																								
100	100	6	42	mm	100	2210	135																																																																																																																								
Frame#	Time	LFHD			RFHD			LBHD			RBHD			C7			T10			CLAV			STRN			RBAK			LSHO			LUPA			LELB			LFRM			LWRA			LWRB			LFIN			RSHO			RUPA			RELB			RFRM			RWRA			RWRB			RFIN			LASI			RASI			LPSI			RPSI			LTHI			LKNE			LTIB			LANK			LHEE			LTOE			RTHI			RKNE			RTIB			RANK			RHEE			RTOE			*39			*40			*41		
		X1	Y1	Z1	X2	Y2	Z2	X3	Y3	Z3	X4	Y4	Z4	X5	Y5	Z5	X6	Y6	Z6	X7	Y7	Z7	X8	Y8	Z8	X9	Y9	Z9	X10	Y10	Z10	X11	Y11	Z11	X12	Y12	Z12	X13	Y13	Z13	X14	Y14	Z14	X15	Y15	Z15	X16	Y16	Z16	X17	Y17	Z17	X18	Y18	Z18	X19	Y19	Z19	X20	Y20	Z20	X21	Y21	Z21	X22	Y22	Z22	X23	Y23	Z23	X24	Y24	Z24	X25	Y25	Z25	X26	Y26	Z26	X27	Y27	Z27	X28	Y28	Z28	X29	Y29	Z29	X30	Y30	Z30	X31	Y31	Z31	X32	Y32	Z32	X33	Y33	Z33	X34	Y34	Z34	X35	Y35	Z35	X36	Y36	Z36	X37	Y37	Z37	X38	Y38	Z38	X39	Y39	Z39	X40	Y40	Z40	X41	Y41	Z41	X42	Y42	Z42
																																																																																																																															
102	1.01	356.88193	1652.0542	-1511.3186	359.15848	1653.82153	-1397.02197	237.55783	1617.69702	-1516.9624	236.37541	1618.57104	-1395.92505	175.68517	1424.87	-1473.48523	132.59303	1130.19312	-1459.71936	318.05811	1352.04944	-1470.36694	358.76755	1198.55664	-1474.12219	115.19047	1233.53967	-1387.50403	257.6723	1382.88354	-1632.17395	180.35919	1216.91785	-1715.35034	124.6209	1075.32007	-1716.21619	139.58118	959.28058	-1735.77368	195.83925	832.26941	-1711.28845	139.79468	837.01001	-1734.53674	172.67502	760.69708	-1745.39453	255.32515	1389.68213	-1319.26501	189.33238	1199.99939	-1209.65833	190.71616	1071.16846	-1197.51147	275.6651	977.31256	-1190.99683	398.05243	927.10986	-1241.3363	370.81427	900.62952	-1199.08118	445.85486	866.55573	-1209.20374	317.52475	924.75842	-1563.37866	303.58224	922.78192	-1344.7395	128.79951	935.80554	-1523.62805	122.10368	947.05402	-1380.47034	360.09518	608.73468	-1646.29028	401.05371	484.44049	-1628.43872	416.17978	302.17786	-1650.63513	480.41965	83.17992	-1614.55322	453.77454	35.89304	-1558.33533	626.65442	99.46868	-1622.09167	173.52	602.59607	-1300.49268	137.43382	445.55316	-1329.75378	37.16833	299.91211	-1327.56531	-49.22194	111.39119	-1378.56116	-109.35618	94.25012	-1425.1416	71.39449	33.65232	-1393.12219	352.08115	1688.37793	-1419.89783	-1973.14185	1023.48187	3101.85083	-2012.47754	1021.96313	3140.64136
103	1.02	369.94055	1650.53723	-1513.17432	371.63062	1652.47559	-1398.8905	250.65257	1616.05835	-1519.33521	248.94167	1617.12183	-1398.27527	188.92897	1422.88379	-1475.54102	146.48782	1128.28638	-1461.16089	331.3898	1350.51172	-1471.98743	372.56793	1197.16577	-1475.19128	128.47177	1231.86328	-1389.32947	271.36667	1380.83044	-1634.04639	193.78476	1214.86157	-1716.81787	137.52486	1073.47119	-1717.12244	151.09134	957.40167	-1736.59253	205.88794	829.73224	-1711.96777	149.78578	835.11029	-1735.08228	181.78098	758.48077	-1745.97925	268.16336	1388.30969	-1321.0188	202.04242	1199.18066	-1210.98694	203.2704	1070.23206	-1198.48572	289.02679	977.06299	-1192.20496	411.69116	928.01746	-1243.125	384.88153	901.34796	-1200.57825	460.25684	867.95691	-1211.42505	332.59415	923.00403	-1563.26563	316.97119	921.40472	-1344.87195	143.63187	934.23187	-1525.75732	135.67421	945.52502	-1382.59729	374.31253	607.54175	-1647.76355	415.87146	484.02167	-1628.7981	434.30368	301.44434	-1651.15723	501.47791	83.35006	-1615.29138	475.18762	35.46756	-1559.31128	647.66791	101.7366	-1621.41345	185.08446	601.63507	-1300.61792	147.87721	444.91455	-1329.80261	44.01088	301.21356	-1327.4209	-46.17713	114.55643	-1377.77087	-106.94686	98.95422	-1424.3291	71.80933	33.61771	-1392.97583	364.60495	1686.97217	-1421.83533	-1972.97729	1023.50464	3101.94946	-2012.42615	1022.01416	3140.64087
104	1.03	382.92471	1649.11926	-1515.10657	384.13663	1651.1709	-1400.74194	263.79147	1614.41113	-1521.80139	261.50323	1615.62012	-1400.72424	202.19966	1421.00208	-1477.80212	160.5062	1126.37048	-1462.70007	344.84143	1349.01392	-1473.6543	386.43805	1195.78711	-1476.22742	141.83699	1230.06897	-1391.40015	285.21188	1378.7699	-1635.94678	207.51256	1212.66675	-1718.38879	150.80727	1071.59741	-1718.22668	163.17136	955.3924	-1737.4762	216.76459	827.28674	-1712.72864	160.57539	833.12323	-1735.58667	191.86401	756.16174	-1746.58325	280.9057	1386.87341	-1323.026	214.5677	1198.21619	-1212.55005	215.77733	1069.20862	-1199.52332	302.03244	976.59222	-1193.4364	424.86444	928.35675	-1244.84192	398.35153	901.54871	-1202.0376	474.10104	868.68866	-1213.45752	347.76602	921.22034	-1563.22131	330.54718	920.05255	-1345.02454	158.55247	932.63037	-1528.05103	149.29843	944.12415	-1385.04761	390.98203	607.39801	-1647.89954	431.6127	483.92029	-1628.78162	450.62134	300.31738	-1651.66467	519.0329	82.50265	-1615.53223	492.73972	34.39291	-1559.94543	665.34308	101.90054	-1620.47998	197.3252	600.81403	-1300.83594	159.14749	443.87527	-1329.80603	51.84798	302.63467	-1327.29407	-43.16945	117.99118	-1377.08252	-104.24862	104.17107	-1423.49548	72.2429	33.53163	-1392.82275	377.17316	1685.67786	-1423.79919	-1973.16235	1023.47986	3101.95117	-2012.54407	1022.14514	3140.71143
105	1.04	395.94669	1647.65967	-1517.09216	396.53558	1650.02209	-1402.8324	276.86539	1612.74573	-1524.37061	273.97388	1614.10901	-1403.27771	215.55634	1419.10498	-1480.09619	174.59082	1124.40796	-1464.34436	358.38998	1347.57129	-1475.28955	400.36258	1194.42615	-1477.27759	155.23845	1228.14905	-1393.68018	299.07828	1376.66687	-1637.92053	221.48247	1210.38879	-1720.02112	164.44084	1069.52563	-1719.43689	175.84709	953.24023	-1738.48254	228.48189	824.89032	-1713.60474	172.27698	831.07117	-1736.51123	202.96002	753.77625	-1747.20703	293.6485	1385.48096	-1325.01282	226.91307	1197.05347	-1214.33069	228.17979	1068.19141	-1200.68665	314.78787	975.84033	-1194.65894	437.6582	928.17194	-1246.42151	411.4437	901.24359	-1203.479	487.2879	868.80707	-1215.43506	363.15799	919.49481	-1563.38586	344.35513	918.63702	-1345.24756	173.39445	930.91107	-1530.25232	163.19502	942.22784	-1387.33679	409.22296	607.59442	-1646.94434	448.13818	483.73511	-1628.36353	465.72461	298.74615	-1651.70825	533.47986	80.9054	-1615.45215	506.68115	32.54977	-1559.97498	679.84692	99.90739	-1619.41907	210.1122	599.49054	-1301.1604	171.06279	442.66797	-1329.78174	60.28534	303.8855	-1327.04089	-39.5362	121.79105	-1376.44128	-100.95308	109.8275	-1422.64746	72.71935	33.50083	-1392.75159	389.53171	1684.33313	-1425.83728	-1973.13513	1023.61768	3101.82397	-2012.48914	1022.10822	3140.60815
106	1.05	408.87906	1646.23389	-1519.14282	408.86627	1648.81238	-1404.87744	289.93018	1610.99084	-1526.9646	286.45178	1612.57178	-1405.86206	228.96628	1417.15015	-1482.43127	188.83997	1122.39685	-1466.04602	372.01947	1346.07239	-1476.96375	414.38498	1193.06763	-1478.39343	168.73183	1226.20984	-1396.15503	313.04453	1374.55579	-1639.89563	235.75259	1208.03418	-1721.73718	178.56	1067.28638	-1720.74756	189.20403	950.99091	-1739.58496	241.04758	822.45654	-1714.5321	184.7883	828.81744	-1737.26404	214.96487	751.30005	-1747.94983	306.34381	1383.96619	-1326.95142	239.13057	1195.83716	-1216.3103	240.35725	1067.07007	-1201.96887	327.17349	974.92664	-1195.93762	450.00192	927.4035	-1247.86255	424.00085	900.60718	-1204.79688	499.86551	868.10962	-1217.14832	378.61801	917.92493	-1563.68616	358.46082	917.11584	-1345.54504	188.44461	929.1344	-1532.35803	177.3029	940.43237	-1389.7738	428.47089	608.3288	-1645.14001	464.96173	483.15515	-1627.74377	479.86572	296.75436	-1651.22815	544.67902	78.21118	-1615.0415	517.2804	30.28024	-1559.63721	691.42328	95.89027	-1618.42102	223.73067	598.15649	-1301.56396	184.26688	441.01617	-1329.74805	69.74441	305.22601	-1326.84595	-35.45524	125.89548	-1375.60571	-97.05029	115.97291	-1421.84338	73.2031	33.51133	-1392.70984	401.93967	1683.08179	-1428.02161	-1973.10425	1023.42548	3101.91406	-2012.52319	1022.1001	3140.771
107	1.06	421.74512	1644.71863	-1521.26013	421.17874	1647.55542	-1406.92004	302.97882	1609.16504	-1529.71338	298.83392	1610.9751	-1408.62488	242.45833	1415.24011	-1484.87598	203.22923	1120.37988	-1467.89197	385.60324	1344.45215	-1478.63843	428.53223	1191.64856	-1479.51563	182.38583	1224.10217	-1398.61292	327.18277	1372.39587	-1641.89294	250.29535	1205.59363	-1723.56018	193.0733	1064.90295	-1722.18237	203.2278	948.61139	-1740.79419	254.1985	819.65967	-1715.11804	198.19759	826.47504	-1738.44348	227.91486	748.83142	-1748.80774	319.05646	1382.40063	-1328.99414	251.1562	1194.55139	-1218.37451	252.46744	1065.98035	-1203.33948	339.11957	973.84717	-1197.16064	461.80258	926.06683	-1249.18213	436.0506	899.34912	-1205.9176	511.85736	866.73096	-1218.61743	394.26254	916.52917	-1564.26953	372.79199	915.56219	-1346.06201	203.71288	927.19403	-1534.14124	191.69005	938.44574	-1391.87695	447.66614	608.67041	-1642.59363	481.86105	481.94156	-1627.01733	492.8027	294.4046	-1650.83923	553.26892	74.7552	-1614.07971	524.49878	28.37501	-1559.10449	700.38867	89.88412	-1617.49561	237.9165	596.43158	-1302.0271	198.27588	439.08069	-1329.70837	79.92192	306.36731	-1326.80762	-30.71132	130.05798	-1374.78381	-92.51568	122.45616	-1421.06372	73.83966	33.54128	-1392.61719	414.24088	1681.74902	-1430.28967	-1973.0636	1023.32819	3101.91138	-2012.45508	1022.01172	3140.75171
